<svg width="24" height="24" viewBox="0 0 24 24" fill="none" xmlns="http://www.w3.org/2000/svg">
<g clip-path="url(#clip0)">
<path d="M11.9766 0.0234375C8.15874 0.0234375 5.05266 3.12956 5.05266 6.94739C5.05266 9.31219 6.24464 11.4036 8.05908 12.6532C6.36506 13.2378 4.81238 14.2034 3.50794 15.5078C1.2458 17.77 0 20.7776 0 23.9767H1.87134C1.87134 18.4046 6.40453 13.8714 11.9766 13.8714C15.7945 13.8714 18.9006 10.7653 18.9006 6.94739C18.9006 3.12952 15.7945 0.0234375 11.9766 0.0234375ZM11.9766 12C9.19059 12 6.924 9.73345 6.924 6.94744C6.924 4.16142 9.19059 1.89478 11.9766 1.89478C14.7626 1.89478 17.0292 4.16138 17.0292 6.94744C17.0292 9.7335 14.7626 12 11.9766 12Z" fill="#006464"/>
<path d="M20.0702 18.1755V14.2456H18.1989V18.1755H14.269V20.0468H18.1989V23.9766H20.0702V20.0468H24V18.1755H20.0702Z" fill="#006464"/>
</g>
<defs>
<clipPath id="clip0">
<rect width="24" height="24" fill="white"/>
</clipPath>
</defs>
</svg>
