<svg width="21" height="21" viewBox="0 0 21 21" fill="none" xmlns="http://www.w3.org/2000/svg">
<path d="M3.00252 13.5446C4.09169 12.4036 5.3881 11.5589 6.80255 11.0476C5.28763 9.95447 4.29236 8.1251 4.29236 6.05655C4.29236 2.71698 6.88583 0 10.0736 0C13.2614 0 15.8549 2.71698 15.8549 6.05655C15.8549 8.1251 14.8596 9.95447 13.3446 11.0476C14.7591 11.5589 16.0555 12.4036 17.1447 13.5446C19.0334 15.5233 20.0736 18.1541 20.0736 20.9524H18.5111C18.5111 16.0784 14.7261 12.1131 10.0736 12.1131C5.42115 12.1131 1.63611 16.0784 1.63611 20.9524H0.0736084C0.0736084 18.1541 1.1138 15.5233 3.00252 13.5446ZM10.0736 10.4762C12.3998 10.4762 14.2924 8.49357 14.2924 6.05655C14.2924 3.61952 12.3998 1.6369 10.0736 1.6369C7.7474 1.6369 5.85486 3.61952 5.85486 6.05655C5.85486 8.49357 7.7474 10.4762 10.0736 10.4762Z" fill="#004444"/>
</svg>
