<svg width="20" height="22" viewBox="0 0 20 22" fill="none" xmlns="http://www.w3.org/2000/svg">
<path d="M17.6562 0.5H2.34375C1.05141 0.5 0 1.60398 0 2.96094V6.24219H1.5625V2.96094C1.5625 2.50862 1.91297 2.14062 2.34375 2.14062H17.6562C18.087 2.14062 18.4375 2.50862 18.4375 2.96094V19.0391C18.4375 19.4914 18.087 19.8594 17.6562 19.8594H2.34375C1.91297 19.8594 1.5625 19.4914 1.5625 19.0391V15.7578H0V19.0391C0 20.396 1.05141 21.5 2.34375 21.5H17.6562C18.9486 21.5 20 20.396 20 19.0391V2.96094C20 1.60398 18.9486 0.5 17.6562 0.5Z" fill="#004444"/>
<path d="M9.375 5.90234L8.27016 7.06243L11.2389 10.1796H0V11.8202H11.2389L8.27016 14.9374L9.375 16.0975L14.2298 10.9999L9.375 5.90234Z" fill="#004545"/>
</svg>
