<?xml version="1.0" encoding="iso-8859-1"?>
<!-- Generator: Adobe Illustrator 19.0.0, SVG Export Plug-In . SVG Version: 6.00 Build 0)  -->
<svg version="1.1" id="Capa_1" xmlns="http://www.w3.org/2000/svg" xmlns:xlink="http://www.w3.org/1999/xlink" x="0px" y="0px"
	 viewBox="0 0 512 512" style="enable-background:new 0 0 512 512;" xml:space="preserve" fill="#00FFFF" stroke="#00FFFF">
<g>
	<g>
		<path d="M466,240h-15v90h15c24.853,0,46-20.147,46-45C512,260.147,490.853,240,466,240z"/>
	</g>
</g>
<g>
	<g>
		<path d="M46,240c-24.853,0-46,20.147-46,45c0,24.853,21.147,45,46,45h15v-90H46z"/>
	</g>
</g>
<g>
	<g>
		<path d="M391,98.569v-5.142c0-31.362-12.217-60.645-34.395-82.822L346,0l-10.605,10.605c-16.274,16.274-38.804,25.4-61.816,25.4
			H196c-36.987,0-67.808,26.924-73.901,62.197C104.066,104.077,91,121.04,91,141.006c0,3.974,0,124.775,0,128.994h15
			c24.814,0,45-20.186,45-45v-15h210v15c0,24.814,20.186,45,45,45h15c0-4.595,0-126.598,0-128.994
			C421,121.45,408.461,104.766,391,98.569z"/>
	</g>
</g>
<g>
	<g>
		<path d="M406,300c-36.226,0-66.519-25.811-73.491-60H179.491c-6.973,34.189-37.266,60-73.491,60H91v45
			c0,90.981,74.019,167,165,167s165-76.019,165-167v-45H406z M181,270h30v30h-30V270z M256,420
			c-26.646,0-51.519-14.355-64.937-37.471l25.957-15.059C225.077,381.372,240.019,390,256,390s30.923-8.628,38.979-22.529
			l25.957,15.059C307.519,405.645,282.646,420,256,420z M331,300h-30v-30h30V300z"/>
	</g>
</g>
<g>
</g>
<g>
</g>
<g>
</g>
<g>
</g>
<g>
</g>
<g>
</g>
<g>
</g>
<g>
</g>
<g>
</g>
<g>
</g>
<g>
</g>
<g>
</g>
<g>
</g>
<g>
</g>
<g>
</g>
</svg>
