<svg width="18" height="23" viewBox="0 0 18 23" fill="none" xmlns="http://www.w3.org/2000/svg">
<path d="M9.915 19.4062V14.0156H8.04325V19.4062H9.915ZM14.5944 10.4219V5.39062C14.5944 2.41823 12.0754 0 8.97912 0C5.88284 0 3.36389 2.41823 3.36389 5.39062V10.4219C1.81577 10.4219 0.556274 11.631 0.556274 13.1172V20.3047C0.556274 21.7909 1.81577 23 3.36389 23H14.5944C16.1425 23 17.402 21.7909 17.402 20.3047V13.1172C17.402 11.631 16.1425 10.4219 14.5944 10.4219ZM5.23564 5.39062C5.23564 3.40903 6.91496 1.79688 8.97912 1.79688C11.0433 1.79688 12.7226 3.40903 12.7226 5.39062V10.4219H5.23564V5.39062ZM15.5302 20.3047C15.5302 20.8001 15.1104 21.2031 14.5944 21.2031H3.36389C2.84785 21.2031 2.42802 20.8001 2.42802 20.3047V13.1172C2.42802 12.6218 2.84785 12.2188 3.36389 12.2188H14.5944C15.1104 12.2188 15.5302 12.6218 15.5302 13.1172V20.3047Z" fill="#004444"/>
</svg>
