<svg width="184" height="183" viewBox="0 0 184 183" fill="none" xmlns="http://www.w3.org/2000/svg">
<path d="M1 1H6.51515V6.48485H1V1ZM6.51515 1H12.0303V6.48485H6.51515V1ZM12.0303 1H17.5455V6.48485H12.0303V1ZM17.5455 1H23.0606V6.48485H17.5455V1ZM23.0606 1H28.5758V6.48485H23.0606V1ZM28.5758 1H34.0909V6.48485H28.5758V1ZM34.0909 1H39.6061V6.48485H34.0909V1ZM45.1212 1H50.6364V6.48485H45.1212V1ZM56.1515 1H61.6667V6.48485H56.1515V1ZM72.697 1H78.2121V6.48485H72.697V1ZM83.7273 1H89.2424V6.48485H83.7273V1ZM100.273 1H105.788V6.48485H100.273V1ZM105.788 1H111.303V6.48485H105.788V1ZM111.303 1H116.818V6.48485H111.303V1ZM122.333 1H127.848V6.48485H122.333V1ZM127.848 1H133.364V6.48485H127.848V1ZM144.394 1H149.909V6.48485H144.394V1ZM149.909 1H155.424V6.48485H149.909V1ZM155.424 1H160.939V6.48485H155.424V1ZM160.939 1H166.455V6.48485H160.939V1ZM166.455 1H171.97V6.48485H166.455V1ZM171.97 1H177.485V6.48485H171.97V1ZM177.485 1H183V6.48485H177.485V1ZM1 6.48485H6.51515V11.9697H1V6.48485ZM34.0909 6.48485H39.6061V11.9697H34.0909V6.48485ZM67.1818 6.48485H72.697V11.9697H67.1818V6.48485ZM72.697 6.48485H78.2121V11.9697H72.697V6.48485ZM83.7273 6.48485H89.2424V11.9697H83.7273V6.48485ZM94.7576 6.48485H100.273V11.9697H94.7576V6.48485ZM111.303 6.48485H116.818V11.9697H111.303V6.48485ZM116.818 6.48485H122.333V11.9697H116.818V6.48485ZM127.848 6.48485H133.364V11.9697H127.848V6.48485ZM133.364 6.48485H138.879V11.9697H133.364V6.48485ZM144.394 6.48485H149.909V11.9697H144.394V6.48485ZM177.485 6.48485H183V11.9697H177.485V6.48485ZM1 11.9697H6.51515V17.4545H1V11.9697ZM12.0303 11.9697H17.5455V17.4545H12.0303V11.9697ZM17.5455 11.9697H23.0606V17.4545H17.5455V11.9697ZM23.0606 11.9697H28.5758V17.4545H23.0606V11.9697ZM34.0909 11.9697H39.6061V17.4545H34.0909V11.9697ZM45.1212 11.9697H50.6364V17.4545H45.1212V11.9697ZM50.6364 11.9697H56.1515V17.4545H50.6364V11.9697ZM61.6667 11.9697H67.1818V17.4545H61.6667V11.9697ZM67.1818 11.9697H72.697V17.4545H67.1818V11.9697ZM89.2424 11.9697H94.7576V17.4545H89.2424V11.9697ZM94.7576 11.9697H100.273V17.4545H94.7576V11.9697ZM111.303 11.9697H116.818V17.4545H111.303V11.9697ZM127.848 11.9697H133.364V17.4545H127.848V11.9697ZM133.364 11.9697H138.879V17.4545H133.364V11.9697ZM144.394 11.9697H149.909V17.4545H144.394V11.9697ZM155.424 11.9697H160.939V17.4545H155.424V11.9697ZM160.939 11.9697H166.455V17.4545H160.939V11.9697ZM166.455 11.9697H171.97V17.4545H166.455V11.9697ZM177.485 11.9697H183V17.4545H177.485V11.9697ZM1 17.4545H6.51515V22.9394H1V17.4545ZM12.0303 17.4545H17.5455V22.9394H12.0303V17.4545ZM17.5455 17.4545H23.0606V22.9394H17.5455V17.4545ZM23.0606 17.4545H28.5758V22.9394H23.0606V17.4545ZM34.0909 17.4545H39.6061V22.9394H34.0909V17.4545ZM45.1212 17.4545H50.6364V22.9394H45.1212V17.4545ZM50.6364 17.4545H56.1515V22.9394H50.6364V17.4545ZM56.1515 17.4545H61.6667V22.9394H56.1515V17.4545ZM61.6667 17.4545H67.1818V22.9394H61.6667V17.4545ZM67.1818 17.4545H72.697V22.9394H67.1818V17.4545ZM94.7576 17.4545H100.273V22.9394H94.7576V17.4545ZM122.333 17.4545H127.848V22.9394H122.333V17.4545ZM133.364 17.4545H138.879V22.9394H133.364V17.4545ZM144.394 17.4545H149.909V22.9394H144.394V17.4545ZM155.424 17.4545H160.939V22.9394H155.424V17.4545ZM160.939 17.4545H166.455V22.9394H160.939V17.4545ZM166.455 17.4545H171.97V22.9394H166.455V17.4545ZM177.485 17.4545H183V22.9394H177.485V17.4545ZM1 22.9394H6.51515V28.4242H1V22.9394ZM12.0303 22.9394H17.5455V28.4242H12.0303V22.9394ZM17.5455 22.9394H23.0606V28.4242H17.5455V22.9394ZM23.0606 22.9394H28.5758V28.4242H23.0606V22.9394ZM34.0909 22.9394H39.6061V28.4242H34.0909V22.9394ZM61.6667 22.9394H67.1818V28.4242H61.6667V22.9394ZM67.1818 22.9394H72.697V28.4242H67.1818V22.9394ZM72.697 22.9394H78.2121V28.4242H72.697V22.9394ZM83.7273 22.9394H89.2424V28.4242H83.7273V22.9394ZM89.2424 22.9394H94.7576V28.4242H89.2424V22.9394ZM94.7576 22.9394H100.273V28.4242H94.7576V22.9394ZM105.788 22.9394H111.303V28.4242H105.788V22.9394ZM116.818 22.9394H122.333V28.4242H116.818V22.9394ZM127.848 22.9394H133.364V28.4242H127.848V22.9394ZM144.394 22.9394H149.909V28.4242H144.394V22.9394ZM155.424 22.9394H160.939V28.4242H155.424V22.9394ZM160.939 22.9394H166.455V28.4242H160.939V22.9394ZM166.455 22.9394H171.97V28.4242H166.455V22.9394ZM177.485 22.9394H183V28.4242H177.485V22.9394ZM1 28.4242H6.51515V33.9091H1V28.4242ZM34.0909 28.4242H39.6061V33.9091H34.0909V28.4242ZM45.1212 28.4242H50.6364V33.9091H45.1212V28.4242ZM56.1515 28.4242H61.6667V33.9091H56.1515V28.4242ZM61.6667 28.4242H67.1818V33.9091H61.6667V28.4242ZM83.7273 28.4242H89.2424V33.9091H83.7273V28.4242ZM94.7576 28.4242H100.273V33.9091H94.7576V28.4242ZM100.273 28.4242H105.788V33.9091H100.273V28.4242ZM111.303 28.4242H116.818V33.9091H111.303V28.4242ZM122.333 28.4242H127.848V33.9091H122.333V28.4242ZM133.364 28.4242H138.879V33.9091H133.364V28.4242ZM144.394 28.4242H149.909V33.9091H144.394V28.4242ZM177.485 28.4242H183V33.9091H177.485V28.4242ZM1 33.9091H6.51515V39.3939H1V33.9091ZM6.51515 33.9091H12.0303V39.3939H6.51515V33.9091ZM12.0303 33.9091H17.5455V39.3939H12.0303V33.9091ZM17.5455 33.9091H23.0606V39.3939H17.5455V33.9091ZM23.0606 33.9091H28.5758V39.3939H23.0606V33.9091ZM28.5758 33.9091H34.0909V39.3939H28.5758V33.9091ZM34.0909 33.9091H39.6061V39.3939H34.0909V33.9091ZM45.1212 33.9091H50.6364V39.3939H45.1212V33.9091ZM56.1515 33.9091H61.6667V39.3939H56.1515V33.9091ZM67.1818 33.9091H72.697V39.3939H67.1818V33.9091ZM78.2121 33.9091H83.7273V39.3939H78.2121V33.9091ZM89.2424 33.9091H94.7576V39.3939H89.2424V33.9091ZM100.273 33.9091H105.788V39.3939H100.273V33.9091ZM111.303 33.9091H116.818V39.3939H111.303V33.9091ZM122.333 33.9091H127.848V39.3939H122.333V33.9091ZM133.364 33.9091H138.879V39.3939H133.364V33.9091ZM144.394 33.9091H149.909V39.3939H144.394V33.9091ZM149.909 33.9091H155.424V39.3939H149.909V33.9091ZM155.424 33.9091H160.939V39.3939H155.424V33.9091ZM160.939 33.9091H166.455V39.3939H160.939V33.9091ZM166.455 33.9091H171.97V39.3939H166.455V33.9091ZM171.97 33.9091H177.485V39.3939H171.97V33.9091ZM177.485 33.9091H183V39.3939H177.485V33.9091ZM45.1212 39.3939H50.6364V44.8788H45.1212V39.3939ZM50.6364 39.3939H56.1515V44.8788H50.6364V39.3939ZM61.6667 39.3939H67.1818V44.8788H61.6667V39.3939ZM67.1818 39.3939H72.697V44.8788H67.1818V39.3939ZM72.697 39.3939H78.2121V44.8788H72.697V39.3939ZM83.7273 39.3939H89.2424V44.8788H83.7273V39.3939ZM89.2424 39.3939H94.7576V44.8788H89.2424V39.3939ZM94.7576 39.3939H100.273V44.8788H94.7576V39.3939ZM105.788 39.3939H111.303V44.8788H105.788V39.3939ZM111.303 39.3939H116.818V44.8788H111.303V39.3939ZM116.818 39.3939H122.333V44.8788H116.818V39.3939ZM122.333 39.3939H127.848V44.8788H122.333V39.3939ZM127.848 39.3939H133.364V44.8788H127.848V39.3939ZM6.51515 44.8788H12.0303V50.3636H6.51515V44.8788ZM17.5455 44.8788H23.0606V50.3636H17.5455V44.8788ZM28.5758 44.8788H34.0909V50.3636H28.5758V44.8788ZM34.0909 44.8788H39.6061V50.3636H34.0909V44.8788ZM39.6061 44.8788H45.1212V50.3636H39.6061V44.8788ZM45.1212 44.8788H50.6364V50.3636H45.1212V44.8788ZM50.6364 44.8788H56.1515V50.3636H50.6364V44.8788ZM56.1515 44.8788H61.6667V50.3636H56.1515V44.8788ZM78.2121 44.8788H83.7273V50.3636H78.2121V44.8788ZM89.2424 44.8788H94.7576V50.3636H89.2424V44.8788ZM105.788 44.8788H111.303V50.3636H105.788V44.8788ZM116.818 44.8788H122.333V50.3636H116.818V44.8788ZM127.848 44.8788H133.364V50.3636H127.848V44.8788ZM133.364 44.8788H138.879V50.3636H133.364V44.8788ZM138.879 44.8788H144.394V50.3636H138.879V44.8788ZM144.394 44.8788H149.909V50.3636H144.394V44.8788ZM149.909 44.8788H155.424V50.3636H149.909V44.8788ZM160.939 44.8788H166.455V50.3636H160.939V44.8788ZM166.455 44.8788H171.97V50.3636H166.455V44.8788ZM177.485 44.8788H183V50.3636H177.485V44.8788ZM1 50.3636H6.51515V55.8485H1V50.3636ZM6.51515 50.3636H12.0303V55.8485H6.51515V50.3636ZM39.6061 50.3636H45.1212V55.8485H39.6061V50.3636ZM45.1212 50.3636H50.6364V55.8485H45.1212V50.3636ZM50.6364 50.3636H56.1515V55.8485H50.6364V50.3636ZM72.697 50.3636H78.2121V55.8485H72.697V50.3636ZM83.7273 50.3636H89.2424V55.8485H83.7273V50.3636ZM89.2424 50.3636H94.7576V55.8485H89.2424V50.3636ZM111.303 50.3636H116.818V55.8485H111.303V50.3636ZM116.818 50.3636H122.333V55.8485H116.818V50.3636ZM122.333 50.3636H127.848V55.8485H122.333V50.3636ZM133.364 50.3636H138.879V55.8485H133.364V50.3636ZM138.879 50.3636H144.394V55.8485H138.879V50.3636ZM144.394 50.3636H149.909V55.8485H144.394V50.3636ZM149.909 50.3636H155.424V55.8485H149.909V50.3636ZM171.97 50.3636H177.485V55.8485H171.97V50.3636ZM177.485 50.3636H183V55.8485H177.485V50.3636ZM1 55.8485H6.51515V61.3333H1V55.8485ZM12.0303 55.8485H17.5455V61.3333H12.0303V55.8485ZM17.5455 55.8485H23.0606V61.3333H17.5455V55.8485ZM23.0606 55.8485H28.5758V61.3333H23.0606V55.8485ZM34.0909 55.8485H39.6061V61.3333H34.0909V55.8485ZM67.1818 55.8485H72.697V61.3333H67.1818V55.8485ZM72.697 55.8485H78.2121V61.3333H72.697V55.8485ZM89.2424 55.8485H94.7576V61.3333H89.2424V55.8485ZM94.7576 55.8485H100.273V61.3333H94.7576V55.8485ZM105.788 55.8485H111.303V61.3333H105.788V55.8485ZM116.818 55.8485H122.333V61.3333H116.818V55.8485ZM133.364 55.8485H138.879V61.3333H133.364V55.8485ZM149.909 55.8485H155.424V61.3333H149.909V55.8485ZM155.424 55.8485H160.939V61.3333H155.424V55.8485ZM166.455 55.8485H171.97V61.3333H166.455V55.8485ZM171.97 55.8485H177.485V61.3333H171.97V55.8485ZM177.485 55.8485H183V61.3333H177.485V55.8485ZM12.0303 61.3333H17.5455V66.8182H12.0303V61.3333ZM17.5455 61.3333H23.0606V66.8182H17.5455V61.3333ZM23.0606 61.3333H28.5758V66.8182H23.0606V61.3333ZM45.1212 61.3333H50.6364V66.8182H45.1212V61.3333ZM50.6364 61.3333H56.1515V66.8182H50.6364V61.3333ZM56.1515 61.3333H61.6667V66.8182H56.1515V61.3333ZM61.6667 61.3333H67.1818V66.8182H61.6667V61.3333ZM67.1818 61.3333H72.697V66.8182H67.1818V61.3333ZM72.697 61.3333H78.2121V66.8182H72.697V61.3333ZM83.7273 61.3333H89.2424V66.8182H83.7273V61.3333ZM89.2424 61.3333H94.7576V66.8182H89.2424V61.3333ZM94.7576 61.3333H100.273V66.8182H94.7576V61.3333ZM105.788 61.3333H111.303V66.8182H105.788V61.3333ZM111.303 61.3333H116.818V66.8182H111.303V61.3333ZM116.818 61.3333H122.333V66.8182H116.818V61.3333ZM127.848 61.3333H133.364V66.8182H127.848V61.3333ZM133.364 61.3333H138.879V66.8182H133.364V61.3333ZM138.879 61.3333H144.394V66.8182H138.879V61.3333ZM155.424 61.3333H160.939V66.8182H155.424V61.3333ZM160.939 61.3333H166.455V66.8182H160.939V61.3333ZM177.485 61.3333H183V66.8182H177.485V61.3333ZM6.51515 66.8182H12.0303V72.303H6.51515V66.8182ZM12.0303 66.8182H17.5455V72.303H12.0303V66.8182ZM17.5455 66.8182H23.0606V72.303H17.5455V66.8182ZM23.0606 66.8182H28.5758V72.303H23.0606V66.8182ZM34.0909 66.8182H39.6061V72.303H34.0909V66.8182ZM39.6061 66.8182H45.1212V72.303H39.6061V66.8182ZM45.1212 66.8182H50.6364V72.303H45.1212V66.8182ZM50.6364 66.8182H56.1515V72.303H50.6364V66.8182ZM56.1515 66.8182H61.6667V72.303H56.1515V66.8182ZM61.6667 66.8182H67.1818V72.303H61.6667V66.8182ZM67.1818 66.8182H72.697V72.303H67.1818V66.8182ZM72.697 66.8182H78.2121V72.303H72.697V66.8182ZM83.7273 66.8182H89.2424V72.303H83.7273V66.8182ZM89.2424 66.8182H94.7576V72.303H89.2424V66.8182ZM116.818 66.8182H122.333V72.303H116.818V66.8182ZM122.333 66.8182H127.848V72.303H122.333V66.8182ZM127.848 66.8182H133.364V72.303H127.848V66.8182ZM133.364 66.8182H138.879V72.303H133.364V66.8182ZM138.879 66.8182H144.394V72.303H138.879V66.8182ZM144.394 66.8182H149.909V72.303H144.394V66.8182ZM160.939 66.8182H166.455V72.303H160.939V66.8182ZM171.97 66.8182H177.485V72.303H171.97V66.8182ZM6.51515 72.303H12.0303V77.7879H6.51515V72.303ZM39.6061 72.303H45.1212V77.7879H39.6061V72.303ZM50.6364 72.303H56.1515V77.7879H50.6364V72.303ZM56.1515 72.303H61.6667V77.7879H56.1515V72.303ZM89.2424 72.303H94.7576V77.7879H89.2424V72.303ZM94.7576 72.303H100.273V77.7879H94.7576V72.303ZM116.818 72.303H122.333V77.7879H116.818V72.303ZM122.333 72.303H127.848V77.7879H122.333V72.303ZM133.364 72.303H138.879V77.7879H133.364V72.303ZM144.394 72.303H149.909V77.7879H144.394V72.303ZM155.424 72.303H160.939V77.7879H155.424V72.303ZM166.455 72.303H171.97V77.7879H166.455V72.303ZM171.97 72.303H177.485V77.7879H171.97V72.303ZM177.485 72.303H183V77.7879H177.485V72.303ZM1 77.7879H6.51515V83.2727H1V77.7879ZM12.0303 77.7879H17.5455V83.2727H12.0303V77.7879ZM28.5758 77.7879H34.0909V83.2727H28.5758V77.7879ZM34.0909 77.7879H39.6061V83.2727H34.0909V77.7879ZM39.6061 77.7879H45.1212V83.2727H39.6061V77.7879ZM45.1212 77.7879H50.6364V83.2727H45.1212V77.7879ZM50.6364 77.7879H56.1515V83.2727H50.6364V77.7879ZM61.6667 77.7879H67.1818V83.2727H61.6667V77.7879ZM72.697 77.7879H78.2121V83.2727H72.697V77.7879ZM111.303 77.7879H116.818V83.2727H111.303V77.7879ZM116.818 77.7879H122.333V83.2727H116.818V77.7879ZM122.333 77.7879H127.848V83.2727H122.333V77.7879ZM127.848 77.7879H133.364V83.2727H127.848V77.7879ZM133.364 77.7879H138.879V83.2727H133.364V77.7879ZM138.879 77.7879H144.394V83.2727H138.879V77.7879ZM144.394 77.7879H149.909V83.2727H144.394V77.7879ZM149.909 77.7879H155.424V83.2727H149.909V77.7879ZM155.424 77.7879H160.939V83.2727H155.424V77.7879ZM171.97 77.7879H177.485V83.2727H171.97V77.7879ZM1 83.2727H6.51515V88.7576H1V83.2727ZM12.0303 83.2727H17.5455V88.7576H12.0303V83.2727ZM17.5455 83.2727H23.0606V88.7576H17.5455V83.2727ZM28.5758 83.2727H34.0909V88.7576H28.5758V83.2727ZM39.6061 83.2727H45.1212V88.7576H39.6061V83.2727ZM45.1212 83.2727H50.6364V88.7576H45.1212V83.2727ZM56.1515 83.2727H61.6667V88.7576H56.1515V83.2727ZM72.697 83.2727H78.2121V88.7576H72.697V83.2727ZM78.2121 83.2727H83.7273V88.7576H78.2121V83.2727ZM83.7273 83.2727H89.2424V88.7576H83.7273V83.2727ZM94.7576 83.2727H100.273V88.7576H94.7576V83.2727ZM105.788 83.2727H111.303V88.7576H105.788V83.2727ZM116.818 83.2727H122.333V88.7576H116.818V83.2727ZM122.333 83.2727H127.848V88.7576H122.333V83.2727ZM133.364 83.2727H138.879V88.7576H133.364V83.2727ZM144.394 83.2727H149.909V88.7576H144.394V83.2727ZM149.909 83.2727H155.424V88.7576H149.909V83.2727ZM155.424 83.2727H160.939V88.7576H155.424V83.2727ZM171.97 83.2727H177.485V88.7576H171.97V83.2727ZM17.5455 88.7576H23.0606V94.2424H17.5455V88.7576ZM28.5758 88.7576H34.0909V94.2424H28.5758V88.7576ZM34.0909 88.7576H39.6061V94.2424H34.0909V88.7576ZM39.6061 88.7576H45.1212V94.2424H39.6061V88.7576ZM45.1212 88.7576H50.6364V94.2424H45.1212V88.7576ZM50.6364 88.7576H56.1515V94.2424H50.6364V88.7576ZM61.6667 88.7576H67.1818V94.2424H61.6667V88.7576ZM67.1818 88.7576H72.697V94.2424H67.1818V88.7576ZM94.7576 88.7576H100.273V94.2424H94.7576V88.7576ZM105.788 88.7576H111.303V94.2424H105.788V88.7576ZM111.303 88.7576H116.818V94.2424H111.303V88.7576ZM116.818 88.7576H122.333V94.2424H116.818V88.7576ZM122.333 88.7576H127.848V94.2424H122.333V88.7576ZM127.848 88.7576H133.364V94.2424H127.848V88.7576ZM133.364 88.7576H138.879V94.2424H133.364V88.7576ZM144.394 88.7576H149.909V94.2424H144.394V88.7576ZM155.424 88.7576H160.939V94.2424H155.424V88.7576ZM160.939 88.7576H166.455V94.2424H160.939V88.7576ZM171.97 88.7576H177.485V94.2424H171.97V88.7576ZM1 94.2424H6.51515V99.7273H1V94.2424ZM6.51515 94.2424H12.0303V99.7273H6.51515V94.2424ZM23.0606 94.2424H28.5758V99.7273H23.0606V94.2424ZM28.5758 94.2424H34.0909V99.7273H28.5758V94.2424ZM39.6061 94.2424H45.1212V99.7273H39.6061V94.2424ZM45.1212 94.2424H50.6364V99.7273H45.1212V94.2424ZM50.6364 94.2424H56.1515V99.7273H50.6364V94.2424ZM67.1818 94.2424H72.697V99.7273H67.1818V94.2424ZM72.697 94.2424H78.2121V99.7273H72.697V94.2424ZM100.273 94.2424H105.788V99.7273H100.273V94.2424ZM122.333 94.2424H127.848V99.7273H122.333V94.2424ZM127.848 94.2424H133.364V99.7273H127.848V94.2424ZM149.909 94.2424H155.424V99.7273H149.909V94.2424ZM160.939 94.2424H166.455V99.7273H160.939V94.2424ZM171.97 94.2424H177.485V99.7273H171.97V94.2424ZM6.51515 99.7273H12.0303V105.212H6.51515V99.7273ZM12.0303 99.7273H17.5455V105.212H12.0303V99.7273ZM17.5455 99.7273H23.0606V105.212H17.5455V99.7273ZM34.0909 99.7273H39.6061V105.212H34.0909V99.7273ZM61.6667 99.7273H67.1818V105.212H61.6667V99.7273ZM72.697 99.7273H78.2121V105.212H72.697V99.7273ZM78.2121 99.7273H83.7273V105.212H78.2121V99.7273ZM83.7273 99.7273H89.2424V105.212H83.7273V99.7273ZM89.2424 99.7273H94.7576V105.212H89.2424V99.7273ZM94.7576 99.7273H100.273V105.212H94.7576V99.7273ZM111.303 99.7273H116.818V105.212H111.303V99.7273ZM116.818 99.7273H122.333V105.212H116.818V99.7273ZM144.394 99.7273H149.909V105.212H144.394V99.7273ZM166.455 99.7273H171.97V105.212H166.455V99.7273ZM171.97 99.7273H177.485V105.212H171.97V99.7273ZM177.485 99.7273H183V105.212H177.485V99.7273ZM6.51515 105.212H12.0303V110.697H6.51515V105.212ZM12.0303 105.212H17.5455V110.697H12.0303V105.212ZM28.5758 105.212H34.0909V110.697H28.5758V105.212ZM45.1212 105.212H50.6364V110.697H45.1212V105.212ZM56.1515 105.212H61.6667V110.697H56.1515V105.212ZM61.6667 105.212H67.1818V110.697H61.6667V105.212ZM67.1818 105.212H72.697V110.697H67.1818V105.212ZM72.697 105.212H78.2121V110.697H72.697V105.212ZM89.2424 105.212H94.7576V110.697H89.2424V105.212ZM105.788 105.212H111.303V110.697H105.788V105.212ZM116.818 105.212H122.333V110.697H116.818V105.212ZM133.364 105.212H138.879V110.697H133.364V105.212ZM138.879 105.212H144.394V110.697H138.879V105.212ZM149.909 105.212H155.424V110.697H149.909V105.212ZM171.97 105.212H177.485V110.697H171.97V105.212ZM177.485 105.212H183V110.697H177.485V105.212ZM12.0303 110.697H17.5455V116.182H12.0303V110.697ZM23.0606 110.697H28.5758V116.182H23.0606V110.697ZM34.0909 110.697H39.6061V116.182H34.0909V110.697ZM50.6364 110.697H56.1515V116.182H50.6364V110.697ZM56.1515 110.697H61.6667V116.182H56.1515V110.697ZM61.6667 110.697H67.1818V116.182H61.6667V110.697ZM67.1818 110.697H72.697V116.182H67.1818V110.697ZM78.2121 110.697H83.7273V116.182H78.2121V110.697ZM83.7273 110.697H89.2424V116.182H83.7273V110.697ZM122.333 110.697H127.848V116.182H122.333V110.697ZM127.848 110.697H133.364V116.182H127.848V110.697ZM133.364 110.697H138.879V116.182H133.364V110.697ZM171.97 110.697H177.485V116.182H171.97V110.697ZM177.485 110.697H183V116.182H177.485V110.697ZM28.5758 116.182H34.0909V121.667H28.5758V116.182ZM45.1212 116.182H50.6364V121.667H45.1212V116.182ZM61.6667 116.182H67.1818V121.667H61.6667V116.182ZM67.1818 116.182H72.697V121.667H67.1818V116.182ZM83.7273 116.182H89.2424V121.667H83.7273V116.182ZM100.273 116.182H105.788V121.667H100.273V116.182ZM105.788 116.182H111.303V121.667H105.788V116.182ZM111.303 116.182H116.818V121.667H111.303V116.182ZM116.818 116.182H122.333V121.667H116.818V116.182ZM133.364 116.182H138.879V121.667H133.364V116.182ZM138.879 116.182H144.394V121.667H138.879V116.182ZM144.394 116.182H149.909V121.667H144.394V116.182ZM160.939 116.182H166.455V121.667H160.939V116.182ZM171.97 116.182H177.485V121.667H171.97V116.182ZM177.485 116.182H183V121.667H177.485V116.182ZM1 121.667H6.51515V127.152H1V121.667ZM6.51515 121.667H12.0303V127.152H6.51515V121.667ZM12.0303 121.667H17.5455V127.152H12.0303V121.667ZM17.5455 121.667H23.0606V127.152H17.5455V121.667ZM23.0606 121.667H28.5758V127.152H23.0606V121.667ZM34.0909 121.667H39.6061V127.152H34.0909V121.667ZM39.6061 121.667H45.1212V127.152H39.6061V121.667ZM45.1212 121.667H50.6364V127.152H45.1212V121.667ZM50.6364 121.667H56.1515V127.152H50.6364V121.667ZM61.6667 121.667H67.1818V127.152H61.6667V121.667ZM67.1818 121.667H72.697V127.152H67.1818V121.667ZM89.2424 121.667H94.7576V127.152H89.2424V121.667ZM94.7576 121.667H100.273V127.152H94.7576V121.667ZM100.273 121.667H105.788V127.152H100.273V121.667ZM111.303 121.667H116.818V127.152H111.303V121.667ZM122.333 121.667H127.848V127.152H122.333V121.667ZM144.394 121.667H149.909V127.152H144.394V121.667ZM155.424 121.667H160.939V127.152H155.424V121.667ZM160.939 121.667H166.455V127.152H160.939V121.667ZM177.485 121.667H183V127.152H177.485V121.667ZM6.51515 127.152H12.0303V132.636H6.51515V127.152ZM23.0606 127.152H28.5758V132.636H23.0606V127.152ZM28.5758 127.152H34.0909V132.636H28.5758V127.152ZM39.6061 127.152H45.1212V132.636H39.6061V127.152ZM50.6364 127.152H56.1515V132.636H50.6364V127.152ZM56.1515 127.152H61.6667V132.636H56.1515V127.152ZM61.6667 127.152H67.1818V132.636H61.6667V127.152ZM67.1818 127.152H72.697V132.636H67.1818V127.152ZM72.697 127.152H78.2121V132.636H72.697V127.152ZM83.7273 127.152H89.2424V132.636H83.7273V127.152ZM116.818 127.152H122.333V132.636H116.818V127.152ZM127.848 127.152H133.364V132.636H127.848V127.152ZM149.909 127.152H155.424V132.636H149.909V127.152ZM160.939 127.152H166.455V132.636H160.939V127.152ZM1 132.636H6.51515V138.121H1V132.636ZM23.0606 132.636H28.5758V138.121H23.0606V132.636ZM34.0909 132.636H39.6061V138.121H34.0909V132.636ZM39.6061 132.636H45.1212V138.121H39.6061V132.636ZM45.1212 132.636H50.6364V138.121H45.1212V132.636ZM72.697 132.636H78.2121V138.121H72.697V132.636ZM78.2121 132.636H83.7273V138.121H78.2121V132.636ZM83.7273 132.636H89.2424V138.121H83.7273V132.636ZM89.2424 132.636H94.7576V138.121H89.2424V132.636ZM94.7576 132.636H100.273V138.121H94.7576V132.636ZM100.273 132.636H105.788V138.121H100.273V132.636ZM105.788 132.636H111.303V138.121H105.788V132.636ZM116.818 132.636H122.333V138.121H116.818V132.636ZM127.848 132.636H133.364V138.121H127.848V132.636ZM133.364 132.636H138.879V138.121H133.364V132.636ZM138.879 132.636H144.394V138.121H138.879V132.636ZM144.394 132.636H149.909V138.121H144.394V132.636ZM149.909 132.636H155.424V138.121H149.909V132.636ZM155.424 132.636H160.939V138.121H155.424V132.636ZM171.97 132.636H177.485V138.121H171.97V132.636ZM177.485 132.636H183V138.121H177.485V132.636ZM45.1212 138.121H50.6364V143.606H45.1212V138.121ZM50.6364 138.121H56.1515V143.606H50.6364V138.121ZM56.1515 138.121H61.6667V143.606H56.1515V138.121ZM61.6667 138.121H67.1818V143.606H61.6667V138.121ZM83.7273 138.121H89.2424V143.606H83.7273V138.121ZM105.788 138.121H111.303V143.606H105.788V138.121ZM111.303 138.121H116.818V143.606H111.303V138.121ZM122.333 138.121H127.848V143.606H122.333V138.121ZM133.364 138.121H138.879V143.606H133.364V138.121ZM155.424 138.121H160.939V143.606H155.424V138.121ZM160.939 138.121H166.455V143.606H160.939V138.121ZM177.485 138.121H183V143.606H177.485V138.121ZM1 143.606H6.51515V149.091H1V143.606ZM6.51515 143.606H12.0303V149.091H6.51515V143.606ZM12.0303 143.606H17.5455V149.091H12.0303V143.606ZM17.5455 143.606H23.0606V149.091H17.5455V143.606ZM23.0606 143.606H28.5758V149.091H23.0606V143.606ZM28.5758 143.606H34.0909V149.091H28.5758V143.606ZM34.0909 143.606H39.6061V149.091H34.0909V143.606ZM45.1212 143.606H50.6364V149.091H45.1212V143.606ZM50.6364 143.606H56.1515V149.091H50.6364V143.606ZM72.697 143.606H78.2121V149.091H72.697V143.606ZM83.7273 143.606H89.2424V149.091H83.7273V143.606ZM89.2424 143.606H94.7576V149.091H89.2424V143.606ZM100.273 143.606H105.788V149.091H100.273V143.606ZM111.303 143.606H116.818V149.091H111.303V143.606ZM116.818 143.606H122.333V149.091H116.818V143.606ZM133.364 143.606H138.879V149.091H133.364V143.606ZM144.394 143.606H149.909V149.091H144.394V143.606ZM155.424 143.606H160.939V149.091H155.424V143.606ZM160.939 143.606H166.455V149.091H160.939V143.606ZM166.455 143.606H171.97V149.091H166.455V143.606ZM171.97 143.606H177.485V149.091H171.97V143.606ZM1 149.091H6.51515V154.576H1V149.091ZM34.0909 149.091H39.6061V154.576H34.0909V149.091ZM45.1212 149.091H50.6364V154.576H45.1212V149.091ZM72.697 149.091H78.2121V154.576H72.697V149.091ZM83.7273 149.091H89.2424V154.576H83.7273V149.091ZM94.7576 149.091H100.273V154.576H94.7576V149.091ZM100.273 149.091H105.788V154.576H100.273V149.091ZM111.303 149.091H116.818V154.576H111.303V149.091ZM133.364 149.091H138.879V154.576H133.364V149.091ZM155.424 149.091H160.939V154.576H155.424V149.091ZM177.485 149.091H183V154.576H177.485V149.091ZM1 154.576H6.51515V160.061H1V154.576ZM12.0303 154.576H17.5455V160.061H12.0303V154.576ZM17.5455 154.576H23.0606V160.061H17.5455V154.576ZM23.0606 154.576H28.5758V160.061H23.0606V154.576ZM34.0909 154.576H39.6061V160.061H34.0909V154.576ZM50.6364 154.576H56.1515V160.061H50.6364V154.576ZM56.1515 154.576H61.6667V160.061H56.1515V154.576ZM61.6667 154.576H67.1818V160.061H61.6667V154.576ZM67.1818 154.576H72.697V160.061H67.1818V154.576ZM94.7576 154.576H100.273V160.061H94.7576V154.576ZM100.273 154.576H105.788V160.061H100.273V154.576ZM105.788 154.576H111.303V160.061H105.788V154.576ZM122.333 154.576H127.848V160.061H122.333V154.576ZM133.364 154.576H138.879V160.061H133.364V154.576ZM138.879 154.576H144.394V160.061H138.879V154.576ZM144.394 154.576H149.909V160.061H144.394V154.576ZM149.909 154.576H155.424V160.061H149.909V154.576ZM155.424 154.576H160.939V160.061H155.424V154.576ZM160.939 154.576H166.455V160.061H160.939V154.576ZM171.97 154.576H177.485V160.061H171.97V154.576ZM177.485 154.576H183V160.061H177.485V154.576ZM1 160.061H6.51515V165.545H1V160.061ZM12.0303 160.061H17.5455V165.545H12.0303V160.061ZM17.5455 160.061H23.0606V165.545H17.5455V160.061ZM23.0606 160.061H28.5758V165.545H23.0606V160.061ZM34.0909 160.061H39.6061V165.545H34.0909V160.061ZM45.1212 160.061H50.6364V165.545H45.1212V160.061ZM78.2121 160.061H83.7273V165.545H78.2121V160.061ZM83.7273 160.061H89.2424V165.545H83.7273V160.061ZM100.273 160.061H105.788V165.545H100.273V160.061ZM105.788 160.061H111.303V165.545H105.788V160.061ZM111.303 160.061H116.818V165.545H111.303V160.061ZM116.818 160.061H122.333V165.545H116.818V160.061ZM127.848 160.061H133.364V165.545H127.848V160.061ZM133.364 160.061H138.879V165.545H133.364V160.061ZM144.394 160.061H149.909V165.545H144.394V160.061ZM155.424 160.061H160.939V165.545H155.424V160.061ZM171.97 160.061H177.485V165.545H171.97V160.061ZM1 165.545H6.51515V171.03H1V165.545ZM12.0303 165.545H17.5455V171.03H12.0303V165.545ZM17.5455 165.545H23.0606V171.03H17.5455V165.545ZM23.0606 165.545H28.5758V171.03H23.0606V165.545ZM34.0909 165.545H39.6061V171.03H34.0909V165.545ZM50.6364 165.545H56.1515V171.03H50.6364V165.545ZM61.6667 165.545H67.1818V171.03H61.6667V165.545ZM67.1818 165.545H72.697V171.03H67.1818V165.545ZM89.2424 165.545H94.7576V171.03H89.2424V165.545ZM122.333 165.545H127.848V171.03H122.333V165.545ZM127.848 165.545H133.364V171.03H127.848V165.545ZM133.364 165.545H138.879V171.03H133.364V165.545ZM138.879 165.545H144.394V171.03H138.879V165.545ZM155.424 165.545H160.939V171.03H155.424V165.545ZM160.939 165.545H166.455V171.03H160.939V165.545ZM166.455 165.545H171.97V171.03H166.455V165.545ZM177.485 165.545H183V171.03H177.485V165.545ZM1 171.03H6.51515V176.515H1V171.03ZM34.0909 171.03H39.6061V176.515H34.0909V171.03ZM45.1212 171.03H50.6364V176.515H45.1212V171.03ZM50.6364 171.03H56.1515V176.515H50.6364V171.03ZM72.697 171.03H78.2121V176.515H72.697V171.03ZM83.7273 171.03H89.2424V176.515H83.7273V171.03ZM89.2424 171.03H94.7576V176.515H89.2424V171.03ZM116.818 171.03H122.333V176.515H116.818V171.03ZM127.848 171.03H133.364V176.515H127.848V171.03ZM133.364 171.03H138.879V176.515H133.364V171.03ZM138.879 171.03H144.394V176.515H138.879V171.03ZM144.394 171.03H149.909V176.515H144.394V171.03ZM1 176.515H6.51515V182H1V176.515ZM6.51515 176.515H12.0303V182H6.51515V176.515ZM12.0303 176.515H17.5455V182H12.0303V176.515ZM17.5455 176.515H23.0606V182H17.5455V176.515ZM23.0606 176.515H28.5758V182H23.0606V176.515ZM28.5758 176.515H34.0909V182H28.5758V176.515ZM34.0909 176.515H39.6061V182H34.0909V176.515ZM56.1515 176.515H61.6667V182H56.1515V176.515ZM61.6667 176.515H67.1818V182H61.6667V176.515ZM67.1818 176.515H72.697V182H67.1818V176.515ZM100.273 176.515H105.788V182H100.273V176.515ZM116.818 176.515H122.333V182H116.818V176.515ZM133.364 176.515H138.879V182H133.364V176.515ZM144.394 176.515H149.909V182H144.394V176.515ZM155.424 176.515H160.939V182H155.424V176.515ZM160.939 176.515H166.455V182H160.939V176.515ZM171.97 176.515H177.485V182H171.97V176.515Z" fill="black" stroke="black"/>
</svg>
